<?xml version="1.0" standalone="no"?>
<!DOCTYPE svg PUBLIC "-//W3C//DTD SVG 20010904//EN"
 "http://www.w3.org/TR/2001/REC-SVG-20010904/DTD/svg10.dtd">
<svg version="1.0" xmlns="http://www.w3.org/2000/svg"
 width="260.000000pt" height="260.000000pt" viewBox="0 0 260.000000 260.000000"
 preserveAspectRatio="xMidYMid meet">
<metadata>
Created by potrace 1.11, written by Peter Selinger 2001-2013
</metadata>
<g transform="translate(0.000000,260.000000) scale(0.100000,-0.100000)"
fill="#000000" stroke="none">
<path d="M1255 2549 c-415 -47 -764 -289 -959 -665 -36 -70 -91 -221 -102
-279 -24 -126 -32 -205 -31 -319 0 -115 5 -163 31 -302 19 -101 98 -285 170
-398 29 -46 127 -169 161 -201 301 -294 735 -411 1183 -319 156 32 289 89 422
179 82 56 114 82 207 171 l53 51 -139 142 c-136 139 -140 142 -158 123 -41
-43 -185 -152 -245 -185 -61 -35 -198 -91 -198 -82 0 2 -18 -2 -40 -10 -38
-14 -40 -13 -44 8 -3 12 -4 396 -4 853 l1 831 41 -8 c135 -26 287 -106 435
-229 l59 -49 53 62 c29 34 56 64 59 67 3 3 30 34 60 70 30 36 65 76 78 90 12
14 22 27 22 30 0 12 -162 141 -235 187 -125 79 -326 155 -449 169 -28 4 -54 8
-58 11 -16 9 -296 10 -373 2z m-120 -1253 l0 -807 -25 6 c-46 11 -160 86 -226
148 -188 176 -277 400 -270 682 5 193 45 328 142 481 36 57 140 168 194 207
51 37 163 97 175 93 6 -2 10 -282 10 -810z"/>
</g>
</svg>
